<svg width="958" height="180" viewBox="0 0 958 180" fill="#272729" xmlns="http://www.w3.org/2000/svg">
<rect width="958" height="180" rx="14" fill=""/>
<path d="M57.488 65.408C57.488 62.504 60.032 60.944 62.648 60.944C64.976 60.944 67.616 62.336 68.144 65.552L66.08 66.056C65.768 63.56 64.088 62.912 62.48 62.912C60.752 62.912 59.648 63.824 59.648 65.24C59.648 66.656 60.464 67.352 61.784 67.76L64.928 68.672C66.848 69.224 68.408 70.256 68.408 72.776C68.408 75.68 65.816 77.312 62.984 77.312C60.056 77.312 57.152 75.512 56.696 72.176L58.808 71.648C59.096 74.672 61.304 75.344 63.008 75.344C65.264 75.344 66.272 74.36 66.272 72.944C66.272 71.6 65.36 70.952 63.992 70.568L61.064 69.704C59.096 69.152 57.488 68.072 57.488 65.408ZM81.2896 77H79.2976V74.936C78.3376 76.616 76.6576 77.312 75.0736 77.312C72.9856 77.312 71.0896 76.16 71.0896 73.376V64.904H73.0816V72.8C73.0816 74.72 73.8976 75.464 75.7936 75.464C77.7136 75.464 79.2976 74.432 79.2976 72.008V64.904H81.2896V77ZM91.2526 64.568C93.7486 64.568 96.6526 66.536 96.6526 70.76C96.6526 75.176 93.8686 77.312 91.0126 77.312C89.3806 77.312 87.9166 76.328 86.9806 74.648V81.2H84.9886V64.904H86.9806V67.256C87.6766 66.008 89.0446 64.568 91.2526 64.568ZM90.7966 66.344C88.7806 66.344 86.9806 67.784 86.9806 70.904C86.9806 73.904 88.7806 75.536 90.7726 75.536C92.6686 75.536 94.6366 74.024 94.6366 70.808C94.6366 67.808 92.6446 66.344 90.7966 66.344ZM105.667 64.568C108.163 64.568 111.067 66.536 111.067 70.76C111.067 75.176 108.283 77.312 105.427 77.312C103.795 77.312 102.331 76.328 101.395 74.648V81.2H99.4027V64.904H101.395V67.256C102.091 66.008 103.459 64.568 105.667 64.568ZM105.211 66.344C103.195 66.344 101.395 67.784 101.395 70.904C101.395 73.904 103.195 75.536 105.187 75.536C107.083 75.536 109.051 74.024 109.051 70.808C109.051 67.808 107.059 66.344 105.211 66.344ZM118.689 64.568C121.857 64.568 124.473 66.968 124.473 70.928C124.473 74.888 121.857 77.312 118.689 77.312C115.497 77.312 112.905 74.888 112.905 70.928C112.905 66.968 115.497 64.568 118.689 64.568ZM118.689 66.344C116.649 66.344 114.921 67.856 114.921 70.928C114.921 74.024 116.649 75.536 118.689 75.536C120.729 75.536 122.457 74.024 122.457 70.928C122.457 67.856 120.729 66.344 118.689 66.344ZM132.622 66.728C130.894 66.728 129.238 67.904 129.238 71.672V77H127.246V64.904H129.238V67.64C130.174 65.192 132.094 64.568 133.198 64.568C133.63 64.568 134.014 64.64 134.302 64.76L134.062 66.944C133.678 66.824 133.27 66.728 132.622 66.728ZM137.412 61.952L139.404 61.568V64.904H142.572V66.584H139.404V74.12C139.404 75.008 139.836 75.464 140.892 75.464C141.468 75.464 141.756 75.392 142.164 75.296L142.548 76.976C141.996 77.144 141.228 77.312 140.628 77.312C138.444 77.312 137.412 76.088 137.412 74.192V66.584H135.036V64.904H137.412V61.952ZM156.18 77.312C153.636 77.312 150.78 75.272 150.78 70.928C150.78 66.632 153.612 64.568 156.108 64.568C158.148 64.568 159.492 65.408 160.332 67.424V64.904H162.324V77H160.332V74.288C159.756 75.848 158.436 77.312 156.18 77.312ZM156.516 66.344C154.692 66.344 152.796 67.784 152.796 70.976C152.796 74.144 154.692 75.536 156.516 75.536C158.556 75.536 160.332 74.216 160.332 70.976C160.332 67.832 158.532 66.344 156.516 66.344ZM171.388 66.416C169.42 66.416 168.004 67.544 168.004 70.016V77H166.012V64.904H168.004V66.776C168.82 65.216 170.572 64.568 171.988 64.568C174.148 64.568 176.116 65.648 176.116 68.888V77H174.124V69.464C174.124 67.232 172.924 66.416 171.388 66.416ZM190.426 60.728V77H188.434V74.744C187.81 76.112 186.586 77.312 184.234 77.312C181.738 77.312 178.858 75.248 178.858 70.832C178.858 66.608 181.69 64.568 184.57 64.568C186.274 64.568 187.618 65.456 188.434 67.16V60.728H190.426ZM184.69 66.344C182.842 66.344 180.874 67.808 180.874 70.88C180.874 74.024 182.818 75.536 184.666 75.536C186.682 75.536 188.434 74.144 188.434 70.976C188.434 67.928 186.682 66.344 184.69 66.344ZM211.238 60.728V77H209.246V74.744C208.622 76.112 207.398 77.312 205.046 77.312C202.55 77.312 199.67 75.248 199.67 70.832C199.67 66.608 202.502 64.568 205.382 64.568C207.086 64.568 208.43 65.456 209.246 67.16V60.728H211.238ZM205.502 66.344C203.654 66.344 201.686 67.808 201.686 70.88C201.686 74.024 203.63 75.536 205.478 75.536C207.494 75.536 209.246 74.144 209.246 70.976C209.246 67.928 207.494 66.344 205.502 66.344ZM219.894 66.344C217.878 66.344 216.486 67.448 216.126 69.656H223.59C223.446 67.352 221.91 66.344 219.894 66.344ZM225.51 71.264H216.03C216.15 73.784 217.494 75.536 220.11 75.536C222.318 75.536 223.206 74.504 223.566 72.92L225.39 73.328C224.934 76.088 222.318 77.312 220.134 77.312C216.726 77.312 214.014 74.888 214.014 70.904C214.014 67.016 216.63 64.568 219.942 64.568C223.23 64.568 225.51 66.896 225.51 70.544V71.264ZM226.774 64.904H229.03L232.51 74.552L236.014 64.904H238.246L233.422 77H231.598L226.774 64.904ZM245.371 66.344C243.355 66.344 241.963 67.448 241.603 69.656H249.067C248.923 67.352 247.387 66.344 245.371 66.344ZM250.987 71.264H241.507C241.627 73.784 242.971 75.536 245.587 75.536C247.795 75.536 248.683 74.504 249.043 72.92L250.867 73.328C250.411 76.088 247.795 77.312 245.611 77.312C242.203 77.312 239.491 74.888 239.491 70.904C239.491 67.016 242.107 64.568 245.419 64.568C248.707 64.568 250.987 66.896 250.987 70.544V71.264ZM253.762 60.728H255.754V77H253.762V60.728ZM264.329 64.568C267.497 64.568 270.113 66.968 270.113 70.928C270.113 74.888 267.497 77.312 264.329 77.312C261.137 77.312 258.545 74.888 258.545 70.928C258.545 66.968 261.137 64.568 264.329 64.568ZM264.329 66.344C262.289 66.344 260.561 67.856 260.561 70.928C260.561 74.024 262.289 75.536 264.329 75.536C266.369 75.536 268.097 74.024 268.097 70.928C268.097 67.856 266.369 66.344 264.329 66.344ZM279.151 64.568C281.647 64.568 284.551 66.536 284.551 70.76C284.551 75.176 281.767 77.312 278.911 77.312C277.279 77.312 275.815 76.328 274.879 74.648V81.2H272.887V64.904H274.879V67.256C275.575 66.008 276.943 64.568 279.151 64.568ZM278.695 66.344C276.679 66.344 274.879 67.784 274.879 70.904C274.879 73.904 276.679 75.536 278.671 75.536C280.567 75.536 282.535 74.024 282.535 70.808C282.535 67.808 280.543 66.344 278.695 66.344ZM299.877 66.416C298.221 66.416 296.997 67.544 296.997 70.016V77H294.981V69.536C294.981 67.304 293.805 66.416 292.269 66.416C290.565 66.416 289.293 67.544 289.293 70.016V77H287.301V64.904H289.293V66.752C290.085 65.192 291.669 64.568 293.061 64.568C294.525 64.568 296.013 65.168 296.661 66.92C297.525 65.12 299.229 64.568 300.549 64.568C302.661 64.568 304.677 65.648 304.677 68.888V77H302.685V69.416C302.685 67.304 301.509 66.416 299.877 66.416ZM313.293 66.344C311.277 66.344 309.885 67.448 309.525 69.656H316.989C316.845 67.352 315.309 66.344 313.293 66.344ZM318.909 71.264H309.429C309.549 73.784 310.893 75.536 313.509 75.536C315.717 75.536 316.605 74.504 316.965 72.92L318.789 73.328C318.333 76.088 315.717 77.312 313.533 77.312C310.125 77.312 307.413 74.888 307.413 70.904C307.413 67.016 310.029 64.568 313.341 64.568C316.629 64.568 318.909 66.896 318.909 70.544V71.264ZM327.06 66.416C325.092 66.416 323.676 67.544 323.676 70.016V77H321.684V64.904H323.676V66.776C324.492 65.216 326.244 64.568 327.66 64.568C329.82 64.568 331.788 65.648 331.788 68.888V77H329.796V69.464C329.796 67.232 328.596 66.416 327.06 66.416ZM336.162 61.952L338.154 61.568V64.904H341.322V66.584H338.154V74.12C338.154 75.008 338.586 75.464 339.642 75.464C340.218 75.464 340.506 75.392 340.914 75.296L341.298 76.976C340.746 77.144 339.978 77.312 339.378 77.312C337.194 77.312 336.162 76.088 336.162 74.192V66.584H333.786V64.904H336.162V61.952ZM350.442 60.728H352.434V67.208C353.082 66.056 354.402 64.568 356.61 64.568C359.106 64.568 362.01 66.536 362.01 70.76C362.01 75.176 359.25 77.312 356.37 77.312C354.666 77.312 353.25 76.304 352.434 74.816V77H350.442V60.728ZM356.226 66.344C354.234 66.344 352.434 67.784 352.434 70.904C352.434 73.904 354.234 75.536 356.202 75.536C358.074 75.536 359.994 74.024 359.994 70.808C359.994 67.808 358.05 66.344 356.226 66.344ZM365.674 81.128C364.906 81.128 364.162 80.912 363.706 80.696L364.042 78.992C364.378 79.16 364.978 79.4 365.818 79.4C367.642 79.4 368.362 77.816 367.642 76.016L363.202 64.904H365.458L369.058 75.08L372.442 64.904H374.674L369.778 77.936C368.962 80.12 367.738 81.128 365.674 81.128Z" fill="white"/>
<path d="M80.672 103.576L75.904 104.216C75.264 100.184 72.224 99.064 69.472 99.064C65.44 99.064 62.08 101.72 62.08 106.84C62.08 112.472 65.44 114.936 69.728 114.936C72.704 114.936 75.776 113.56 76.096 109.144L80.864 109.784C80.16 116.376 74.368 119.48 69.728 119.48C62.848 119.48 57.12 114.712 57.12 106.84C57.12 99.48 62.784 94.52 69.632 94.52C74.656 94.52 79.712 97.688 80.672 103.576ZM93.3845 105.08C91.2405 105.08 89.0005 106.04 89.0005 109.976V119H84.4885V100.568H89.0005V104.472C90.4405 100.952 92.6165 100.056 94.3765 100.056C94.8565 100.056 95.3685 100.152 95.7845 100.312L95.4965 105.496C94.7925 105.24 94.0245 105.08 93.3845 105.08ZM114.684 119H110.172V116.184C108.892 118.392 106.364 119.48 104.252 119.48C101.18 119.48 98.2363 117.912 98.2363 113.656V100.536H102.748V111.64C102.748 114.52 104.188 115.544 106.14 115.544C108.444 115.544 110.172 114.2 110.172 111.288V100.536H114.684V119ZM136.269 94.2V119H131.757V116.696C130.477 118.328 128.525 119.48 125.645 119.48C122.061 119.48 117.933 116.344 117.933 109.592C117.933 103.16 122.029 100.056 126.157 100.056C128.365 100.056 130.253 100.888 131.757 102.936V94.2H136.269ZM127.149 104.024C124.877 104.024 122.477 105.912 122.477 109.816C122.477 113.656 124.845 115.48 127.117 115.48C129.581 115.48 131.757 113.752 131.757 109.816C131.757 106.008 129.581 104.024 127.149 104.024ZM148.518 103.832C146.31 103.832 144.742 104.952 144.198 107.512H152.806C152.422 104.856 150.662 103.832 148.518 103.832ZM157.126 110.744H144.07C144.358 113.624 146.022 115.512 148.966 115.512C151.75 115.512 152.87 114.392 153.222 112.632L157.318 113.272C156.614 117.528 152.518 119.48 149.126 119.48C143.686 119.48 139.462 115.8 139.462 109.72C139.462 103.8 143.43 100.056 148.678 100.056C153.606 100.056 157.126 103.896 157.126 109.336V110.744Z" fill="white"/>
<g clip-path="url(#clip0_36_572)">
<path d="M946.244 75.7954L946.257 75.7911L946.268 75.786C947.107 75.4251 947.695 75.495 948.06 75.747C948.431 76.003 948.699 76.5354 948.699 77.3769V111.335C948.699 111.994 948.55 112.532 948.263 112.958C947.977 113.382 947.532 113.728 946.88 113.966C934.83 118.351 925.65 120.53 916.488 120.53C907.325 120.53 898.145 118.351 886.095 113.966C885.444 113.728 884.998 113.382 884.712 112.958C884.425 112.532 884.276 111.994 884.276 111.335V77.3769C884.276 76.5354 884.544 76.003 884.915 75.747C885.28 75.495 885.869 75.4251 886.707 75.786L886.718 75.7911L886.731 75.7954C898.3 79.9332 907.386 82.0143 916.488 82.0143C925.589 82.0143 934.675 79.9332 946.244 75.7954Z" stroke="#FF5B24" stroke-width="0.818061"/>
<path d="M886.73 74.4586L886.718 74.4629L886.706 74.468C885.868 74.8304 885.28 74.7602 884.916 74.5074C884.545 74.25 884.276 73.7143 884.276 72.8681V38.7584C884.276 38.0955 884.425 37.5544 884.713 37.1261C884.999 36.6995 885.445 36.3525 886.096 36.1134C898.145 31.7089 907.325 29.5206 916.488 29.5206C925.65 29.5206 934.83 31.7089 946.879 36.1134C947.53 36.3525 947.976 36.6995 948.262 37.1261C948.55 37.5544 948.699 38.0955 948.699 38.7584V72.8681C948.699 73.7143 948.43 74.25 948.059 74.5074C947.695 74.7602 947.107 74.8304 946.269 74.468L946.257 74.4629L946.245 74.4586C934.676 70.3022 925.59 68.2116 916.488 68.2116C907.385 68.2116 898.299 70.3022 886.73 74.4586Z" stroke="#FF5B24" stroke-width="0.818061"/>
<path d="M861.34 125.159L861.335 125.147L861.33 125.135C861.088 124.569 861.148 124.202 861.291 123.992C861.439 123.778 861.762 123.598 862.324 123.598H885.973C886.413 123.598 886.761 123.697 887.033 123.882C887.303 124.066 887.53 124.355 887.688 124.793C890.74 133.249 892.252 139.68 892.252 146.094C892.252 152.509 890.74 158.94 887.688 167.395C887.53 167.833 887.303 168.123 887.033 168.307C886.761 168.491 886.413 168.591 885.973 168.591H862.324C861.762 168.591 861.439 168.411 861.291 168.196C861.148 167.986 861.088 167.62 861.33 167.053L861.335 167.042L861.34 167.03C864.223 158.899 865.677 152.505 865.677 146.094C865.677 139.684 864.223 133.289 861.34 125.159Z" stroke="#FF5B24" stroke-width="0.818061"/>
<path d="M756.25 169H790.207C791.65 169 792.699 168.346 793.223 166.906C802.008 142.691 802.008 129.864 793.223 105.649C792.699 104.21 791.65 103.555 790.207 103.555H756.25C754.414 103.555 753.496 104.733 754.283 106.566C762.543 129.733 762.543 142.822 754.283 165.99C753.496 167.822 754.414 169 756.25 169Z" fill="#5A78FF"/>
<path d="M892.866 144.765C892.866 131.719 903.442 121.143 916.488 121.143C929.534 121.143 940.109 131.719 940.109 144.765C940.109 157.811 929.534 168.386 916.488 168.386C903.442 168.386 892.866 157.811 892.866 144.765Z" stroke="#FF5B24" stroke-width="0.818061"/>
<path d="M851.145 15.2045C833.073 15.2045 818.422 29.8549 818.422 47.927C818.422 65.9991 833.073 80.6494 851.145 80.6494C869.217 80.6494 883.867 65.9991 883.867 47.927C883.867 29.8549 869.217 15.2045 851.145 15.2045Z" fill="#FF5B24"/>
<path d="M860.399 165.073L860.404 165.085L860.409 165.097C860.907 166.259 860.826 167.114 860.448 167.664C860.066 168.219 859.294 168.591 858.133 168.591H812.351C811.441 168.591 810.686 168.385 810.083 167.977C809.482 167.57 808.999 166.939 808.67 166.034C802.755 149.708 799.812 137.258 799.812 124.825C799.812 112.391 802.755 99.9412 808.67 83.6159C808.999 82.7101 809.482 82.0798 810.083 81.6728C810.686 81.2646 811.441 81.0585 812.351 81.0585H858.133C859.294 81.0585 860.066 81.4303 860.448 81.9855C860.826 82.5355 860.907 83.3904 860.409 84.5524L860.404 84.5643L860.399 84.5763C854.823 100.236 852.023 112.523 852.023 124.825C852.023 137.127 854.823 149.413 860.399 165.073Z" stroke="#FF5B24" stroke-width="0.818061"/>
</g>
<defs>
<clipPath id="clip0_36_572">
<rect width="195.108" height="154" fill="white" transform="translate(754 15)"/>
</clipPath>
</defs>
</svg>
